<svg width="64" height="64" viewBox="0 0 64 64" fill="none" xmlns="http://www.w3.org/2000/svg">
    <g stroke="currentColor" stroke-width="1.5" stroke-linecap="round" stroke-linejoin="round">
        <path
            d="M24 18C18.5 18 15 22.5 15 28.5C15 35.5 19.1 40.8 24 43C28.9 40.8 33 35.5 33 28.5C33 22.5 29.5 18 24 18Z" />
        <path d="M21 28H21.01" />
        <path d="M27 28H27.01" />
        <path d="M20.5 36C22 34.8 23 34.3 24 34.3C25 34.3 26 34.8 27.5 36" />

        <path
            d="M40 18C34.5 18 31 22.5 31 28.5C31 35.5 35.1 40.8 40 43C44.9 40.8 49 35.5 49 28.5C49 22.5 45.5 18 40 18Z" />
        <path d="M37 28H37.01" />
        <path d="M43 28H43.01" />
        <path d="M36.5 35.5C38 36.7 39 37.2 40 37.2C41 37.2 42 36.7 43.5 35.5" />

        <path d="M32 45L34 49L38 50L34.8 52.2L35.8 56L32 53.8L28.2 56L29.2 52.2L26 50L30 49L32 45Z" />
    </g>
</svg>